<?xml version="1.0" standalone="no"?>
<!DOCTYPE svg PUBLIC "-//W3C//DTD SVG 20010904//EN"
 "http://www.w3.org/TR/2001/REC-SVG-20010904/DTD/svg10.dtd">
<svg version="1.0" xmlns="http://www.w3.org/2000/svg"
 width="700.000000pt" height="700.000000pt" viewBox="0 0 700.000000 700.000000"
 preserveAspectRatio="xMidYMid meet">
<metadata>
Created by potrace 1.11, written by Peter Selinger 2001-2013
</metadata>
<g transform="translate(0.000000,700.000000) scale(0.100000,-0.100000)"
fill="#000000" stroke="none">
<path d="M1637 6404 c-214 -40 -396 -214 -453 -435 -16 -59 -17 -251 -17
-2469 0 -2208 1 -2410 17 -2470 26 -104 74 -187 151 -266 79 -80 148 -124 250
-156 l70 -23 1845 0 1845 0 68 22 c199 63 352 224 403 423 16 59 17 228 18
1990 1 1059 -3 1950 -7 1980 -4 30 -19 73 -32 95 -13 23 -299 317 -637 654
-517 518 -622 618 -668 640 l-55 26 -1365 1 c-1066 0 -1380 -2 -1433 -12z
m2150 -660 c2 -49 4 -267 6 -484 2 -217 6 -402 8 -410 3 -8 9 -31 13 -50 11
-45 60 -145 94 -190 80 -106 192 -181 323 -216 56 -15 122 -17 541 -18 l478
-1 0 -1602 c0 -1520 -1 -1603 -17 -1604 -24 0 -3454 0 -3470 0 -17 1 -19 4657
-3 4663 5 2 463 3 1017 2 l1008 -1 2 -89z m1329 -781 c-6 -6 -724 -6 -733 0
-6 4 -10 707 -4 739 0 4 168 -160 371 -364 204 -204 369 -373 366 -375z"/>
<path d="M2533 4941 c-215 -73 -267 -335 -98 -494 62 -59 116 -71 323 -72 207
-1 260 8 328 57 145 104 163 306 39 433 -79 82 -119 92 -350 93 -157 1 -199
-2 -242 -17z"/>
<path d="M2880 3790 c-375 -6 -373 -5 -453 -79 -126 -116 -121 -316 10 -431
84 -74 36 -71 1089 -68 l939 3 45 27 c177 105 208 335 63 469 -85 78 -45 73
-738 79 -341 3 -771 3 -955 0z"/>
<path d="M2547 2612 c-80 -20 -149 -79 -189 -162 -17 -34 -22 -62 -22 -115 2
-121 57 -211 162 -262 l57 -28 945 0 945 0 57 28 c223 109 216 420 -12 526
l-55 26 -919 0 c-718 0 -930 -3 -969 -13z"/>
</g>
</svg>
